<mxfile host="app.diagrams.net" agent="Mozilla/5.0 (Windows NT 10.0; Win64; x64) AppleWebKit/537.36 (KHTML, like Gecko) Chrome/130.0.0.0 Safari/537.36" version="24.8.6">
  <diagram name="Page-1" id="KEBiCmwcIs1lIJkUnLUC">
    <mxGraphModel grid="1" page="1" gridSize="10" guides="1" tooltips="1" connect="1" arrows="1" fold="1" pageScale="1" pageWidth="827" pageHeight="1169" math="0" shadow="0">
      <root>
        <mxCell id="0" />
        <mxCell id="1" parent="0" />
        <mxCell id="8iJM9ZkAW7ooaeFF_Nti-1" value="Utilisateur" style="html=1;whiteSpace=wrap;" vertex="1" parent="1">
          <mxGeometry x="980" y="654" width="160" height="50" as="geometry" />
        </mxCell>
        <mxCell id="8iJM9ZkAW7ooaeFF_Nti-2" value=":Application" style="html=1;whiteSpace=wrap;" vertex="1" parent="1">
          <mxGeometry x="1350" y="654" width="160" height="50" as="geometry" />
        </mxCell>
        <mxCell id="8iJM9ZkAW7ooaeFF_Nti-3" value="" style="endArrow=none;html=1;rounded=0;entryX=0.5;entryY=1;entryDx=0;entryDy=0;exitX=0.11;exitY=0.999;exitDx=0;exitDy=0;exitPerimeter=0;" edge="1" parent="1" source="8iJM9ZkAW7ooaeFF_Nti-7" target="8iJM9ZkAW7ooaeFF_Nti-1">
          <mxGeometry width="50" height="50" relative="1" as="geometry">
            <mxPoint x="1060" y="1214" as="sourcePoint" />
            <mxPoint x="1100" y="784" as="targetPoint" />
          </mxGeometry>
        </mxCell>
        <mxCell id="8iJM9ZkAW7ooaeFF_Nti-4" value="" style="endArrow=none;html=1;rounded=0;entryX=0.5;entryY=1;entryDx=0;entryDy=0;exitX=0.5;exitY=0;exitDx=0;exitDy=0;" edge="1" parent="1" source="8iJM9ZkAW7ooaeFF_Nti-23" target="8iJM9ZkAW7ooaeFF_Nti-2">
          <mxGeometry width="50" height="50" relative="1" as="geometry">
            <mxPoint x="1339.5" y="1214" as="sourcePoint" />
            <mxPoint x="1339.5" y="704" as="targetPoint" />
          </mxGeometry>
        </mxCell>
        <mxCell id="8iJM9ZkAW7ooaeFF_Nti-5" value="" style="endArrow=open;html=1;rounded=0;endFill=0;entryX=0.062;entryY=0.06;entryDx=0;entryDy=0;entryPerimeter=0;" edge="1" parent="1" target="8iJM9ZkAW7ooaeFF_Nti-20">
          <mxGeometry width="50" height="50" relative="1" as="geometry">
            <mxPoint x="1060" y="744" as="sourcePoint" />
            <mxPoint x="1320" y="744" as="targetPoint" />
          </mxGeometry>
        </mxCell>
        <mxCell id="8iJM9ZkAW7ooaeFF_Nti-6" value="s&#39;identifier" style="text;html=1;align=center;verticalAlign=middle;resizable=0;points=[];autosize=1;strokeColor=none;fillColor=none;" vertex="1" parent="1">
          <mxGeometry x="1216" y="720" width="80" height="30" as="geometry" />
        </mxCell>
        <mxCell id="8iJM9ZkAW7ooaeFF_Nti-7" value="frame" style="shape=umlFrame;whiteSpace=wrap;html=1;pointerEvents=0;" vertex="1" parent="1">
          <mxGeometry x="940" y="624" width="1070" height="856" as="geometry" />
        </mxCell>
        <mxCell id="8iJM9ZkAW7ooaeFF_Nti-8" value="Diagramme de séquence : création d&#39;une figure" style="text;html=1;align=center;verticalAlign=middle;resizable=0;points=[];autosize=1;strokeColor=none;fillColor=none;" vertex="1" parent="1">
          <mxGeometry x="1116" y="585" width="280" height="30" as="geometry" />
        </mxCell>
        <mxCell id="8iJM9ZkAW7ooaeFF_Nti-9" value="" style="endArrow=open;html=1;rounded=0;endFill=0;dashed=1;" edge="1" parent="1">
          <mxGeometry width="50" height="50" relative="1" as="geometry">
            <mxPoint x="1405.5" y="795" as="sourcePoint" />
            <mxPoint x="1075.5" y="795" as="targetPoint" />
          </mxGeometry>
        </mxCell>
        <mxCell id="8iJM9ZkAW7ooaeFF_Nti-10" value="Connecté" style="text;html=1;align=center;verticalAlign=middle;resizable=0;points=[];autosize=1;strokeColor=none;fillColor=none;" vertex="1" parent="1">
          <mxGeometry x="1216.5" y="770" width="70" height="30" as="geometry" />
        </mxCell>
        <mxCell id="8iJM9ZkAW7ooaeFF_Nti-11" value="" style="endArrow=open;html=1;rounded=0;endFill=0;entryX=0.005;entryY=0.147;entryDx=0;entryDy=0;entryPerimeter=0;" edge="1" parent="1" target="8iJM9ZkAW7ooaeFF_Nti-23">
          <mxGeometry width="50" height="50" relative="1" as="geometry">
            <mxPoint x="1060" y="951" as="sourcePoint" />
            <mxPoint x="1320" y="950" as="targetPoint" />
          </mxGeometry>
        </mxCell>
        <mxCell id="8iJM9ZkAW7ooaeFF_Nti-12" value="ajout d&#39;un titre" style="text;html=1;align=center;verticalAlign=middle;resizable=0;points=[];autosize=1;strokeColor=none;fillColor=none;" vertex="1" parent="1">
          <mxGeometry x="1200" y="920" width="100" height="30" as="geometry" />
        </mxCell>
        <mxCell id="8iJM9ZkAW7ooaeFF_Nti-13" value="Titre ajouté" style="text;html=1;align=center;verticalAlign=middle;resizable=0;points=[];autosize=1;strokeColor=none;fillColor=none;" vertex="1" parent="1">
          <mxGeometry x="1215.3" y="956" width="80" height="30" as="geometry" />
        </mxCell>
        <mxCell id="8iJM9ZkAW7ooaeFF_Nti-14" value="" style="endArrow=open;html=1;rounded=0;endFill=0;dashed=1;exitX=-0.01;exitY=0.876;exitDx=0;exitDy=0;exitPerimeter=0;entryX=1.067;entryY=0.386;entryDx=0;entryDy=0;entryPerimeter=0;" edge="1" parent="1">
          <mxGeometry width="50" height="50" relative="1" as="geometry">
            <mxPoint x="1419.9999999999998" y="978.5600000000002" as="sourcePoint" />
            <mxPoint x="1077.31" y="982.6580000000001" as="targetPoint" />
          </mxGeometry>
        </mxCell>
        <mxCell id="8iJM9ZkAW7ooaeFF_Nti-15" value="" style="endArrow=open;html=1;rounded=0;endFill=0;entryX=-0.072;entryY=0.127;entryDx=0;entryDy=0;entryPerimeter=0;" edge="1" parent="1" target="8iJM9ZkAW7ooaeFF_Nti-21">
          <mxGeometry width="50" height="50" relative="1" as="geometry">
            <mxPoint x="1060" y="850" as="sourcePoint" />
            <mxPoint x="1340" y="850" as="targetPoint" />
          </mxGeometry>
        </mxCell>
        <mxCell id="8iJM9ZkAW7ooaeFF_Nti-16" value="Accéder à la page de création d&#39;un blogpost" style="text;html=1;align=center;verticalAlign=middle;resizable=0;points=[];autosize=1;strokeColor=none;fillColor=none;" vertex="1" parent="1">
          <mxGeometry x="1130" y="828" width="260" height="30" as="geometry" />
        </mxCell>
        <mxCell id="8iJM9ZkAW7ooaeFF_Nti-17" value="affichage page de création d&#39;un blogpost" style="text;html=1;align=center;verticalAlign=middle;resizable=0;points=[];autosize=1;strokeColor=none;fillColor=none;" vertex="1" parent="1">
          <mxGeometry x="1135" y="870" width="240" height="30" as="geometry" />
        </mxCell>
        <mxCell id="8iJM9ZkAW7ooaeFF_Nti-18" value="" style="rounded=0;whiteSpace=wrap;html=1;strokeWidth=1;" vertex="1" parent="1">
          <mxGeometry x="1045" y="707" width="30" height="743" as="geometry" />
        </mxCell>
        <mxCell id="8iJM9ZkAW7ooaeFF_Nti-20" value="" style="rounded=0;whiteSpace=wrap;html=1;strokeWidth=1;" vertex="1" parent="1">
          <mxGeometry x="1415" y="740" width="30" height="60" as="geometry" />
        </mxCell>
        <mxCell id="8iJM9ZkAW7ooaeFF_Nti-21" value="" style="rounded=0;whiteSpace=wrap;html=1;strokeWidth=1;" vertex="1" parent="1">
          <mxGeometry x="1420" y="843" width="30" height="60" as="geometry" />
        </mxCell>
        <mxCell id="8iJM9ZkAW7ooaeFF_Nti-22" value="" style="endArrow=none;html=1;rounded=0;entryX=0.5;entryY=1;entryDx=0;entryDy=0;exitX=0.5;exitY=0;exitDx=0;exitDy=0;" edge="1" parent="1" source="8iJM9ZkAW7ooaeFF_Nti-25" target="8iJM9ZkAW7ooaeFF_Nti-23">
          <mxGeometry width="50" height="50" relative="1" as="geometry">
            <mxPoint x="1436.12" y="1234.242" as="sourcePoint" />
            <mxPoint x="1429.5" y="704" as="targetPoint" />
          </mxGeometry>
        </mxCell>
        <mxCell id="8iJM9ZkAW7ooaeFF_Nti-23" value="" style="rounded=0;whiteSpace=wrap;html=1;strokeWidth=1;" vertex="1" parent="1">
          <mxGeometry x="1420" y="941" width="30" height="60" as="geometry" />
        </mxCell>
        <mxCell id="8iJM9ZkAW7ooaeFF_Nti-24" value="" style="endArrow=none;html=1;rounded=0;entryX=0.5;entryY=1;entryDx=0;entryDy=0;exitX=0.5;exitY=0;exitDx=0;exitDy=0;" edge="1" parent="1" source="8iJM9ZkAW7ooaeFF_Nti-30" target="8iJM9ZkAW7ooaeFF_Nti-25">
          <mxGeometry width="50" height="50" relative="1" as="geometry">
            <mxPoint x="1436.12" y="1234.242" as="sourcePoint" />
            <mxPoint x="1435" y="1001" as="targetPoint" />
          </mxGeometry>
        </mxCell>
        <mxCell id="8iJM9ZkAW7ooaeFF_Nti-25" value="" style="rounded=0;whiteSpace=wrap;html=1;strokeWidth=1;" vertex="1" parent="1">
          <mxGeometry x="1420" y="1030" width="30" height="60" as="geometry" />
        </mxCell>
        <mxCell id="8iJM9ZkAW7ooaeFF_Nti-26" value="ajout d&#39;une description" style="text;html=1;align=center;verticalAlign=middle;resizable=0;points=[];autosize=1;strokeColor=none;fillColor=none;" vertex="1" parent="1">
          <mxGeometry x="1185" y="1016" width="140" height="30" as="geometry" />
        </mxCell>
        <mxCell id="8iJM9ZkAW7ooaeFF_Nti-27" value="" style="endArrow=open;html=1;rounded=0;endFill=0;entryX=0.005;entryY=0.147;entryDx=0;entryDy=0;entryPerimeter=0;" edge="1" parent="1">
          <mxGeometry width="50" height="50" relative="1" as="geometry">
            <mxPoint x="1080" y="1039" as="sourcePoint" />
            <mxPoint x="1421" y="1039" as="targetPoint" />
          </mxGeometry>
        </mxCell>
        <mxCell id="8iJM9ZkAW7ooaeFF_Nti-28" value="description ajouté" style="text;html=1;align=center;verticalAlign=middle;resizable=0;points=[];autosize=1;strokeColor=none;fillColor=none;" vertex="1" parent="1">
          <mxGeometry x="1196" y="1060" width="120" height="30" as="geometry" />
        </mxCell>
        <mxCell id="8iJM9ZkAW7ooaeFF_Nti-29" value="" style="endArrow=none;html=1;rounded=0;entryX=0.5;entryY=1;entryDx=0;entryDy=0;" edge="1" parent="1" source="8iJM9ZkAW7ooaeFF_Nti-44" target="8iJM9ZkAW7ooaeFF_Nti-30">
          <mxGeometry width="50" height="50" relative="1" as="geometry">
            <mxPoint x="1435" y="1460" as="sourcePoint" />
            <mxPoint x="1435" y="1090" as="targetPoint" />
          </mxGeometry>
        </mxCell>
        <mxCell id="8iJM9ZkAW7ooaeFF_Nti-30" value="" style="rounded=0;whiteSpace=wrap;html=1;strokeWidth=1;" vertex="1" parent="1">
          <mxGeometry x="1420" y="1109" width="30" height="60" as="geometry" />
        </mxCell>
        <mxCell id="8iJM9ZkAW7ooaeFF_Nti-31" value="ajouter à un groupe" style="text;html=1;align=center;verticalAlign=middle;resizable=0;points=[];autosize=1;strokeColor=none;fillColor=none;" vertex="1" parent="1">
          <mxGeometry x="1189" y="1109" width="130" height="30" as="geometry" />
        </mxCell>
        <mxCell id="8iJM9ZkAW7ooaeFF_Nti-32" value="" style="endArrow=open;html=1;rounded=0;endFill=0;entryX=0.005;entryY=0.147;entryDx=0;entryDy=0;entryPerimeter=0;" edge="1" parent="1">
          <mxGeometry width="50" height="50" relative="1" as="geometry">
            <mxPoint x="1079" y="1132" as="sourcePoint" />
            <mxPoint x="1420" y="1132" as="targetPoint" />
          </mxGeometry>
        </mxCell>
        <mxCell id="8iJM9ZkAW7ooaeFF_Nti-33" value="ajouté à un groupe" style="text;html=1;align=center;verticalAlign=middle;resizable=0;points=[];autosize=1;strokeColor=none;fillColor=none;" vertex="1" parent="1">
          <mxGeometry x="1195" y="1139" width="120" height="30" as="geometry" />
        </mxCell>
        <mxCell id="8iJM9ZkAW7ooaeFF_Nti-34" value="" style="endArrow=open;html=1;rounded=0;endFill=0;dashed=1;exitX=-0.01;exitY=0.876;exitDx=0;exitDy=0;exitPerimeter=0;entryX=1.039;entryY=0.731;entryDx=0;entryDy=0;entryPerimeter=0;" edge="1" parent="1">
          <mxGeometry width="50" height="50" relative="1" as="geometry">
            <mxPoint x="1412" y="1162" as="sourcePoint" />
            <mxPoint x="1075" y="1161" as="targetPoint" />
          </mxGeometry>
        </mxCell>
        <mxCell id="8iJM9ZkAW7ooaeFF_Nti-35" value="" style="rounded=0;whiteSpace=wrap;html=1;strokeWidth=1;" vertex="1" parent="1">
          <mxGeometry x="1420" y="1200" width="30" height="60" as="geometry" />
        </mxCell>
        <mxCell id="8iJM9ZkAW7ooaeFF_Nti-36" value="ajout illustrations" style="text;html=1;align=center;verticalAlign=middle;resizable=0;points=[];autosize=1;strokeColor=none;fillColor=none;" vertex="1" parent="1">
          <mxGeometry x="1199" y="1190" width="110" height="30" as="geometry" />
        </mxCell>
        <mxCell id="8iJM9ZkAW7ooaeFF_Nti-37" value="" style="endArrow=open;html=1;rounded=0;endFill=0;entryX=0.005;entryY=0.147;entryDx=0;entryDy=0;entryPerimeter=0;" edge="1" parent="1">
          <mxGeometry width="50" height="50" relative="1" as="geometry">
            <mxPoint x="1079" y="1213" as="sourcePoint" />
            <mxPoint x="1420" y="1213" as="targetPoint" />
          </mxGeometry>
        </mxCell>
        <mxCell id="8iJM9ZkAW7ooaeFF_Nti-38" value="illustrations ajoutée" style="text;html=1;align=center;verticalAlign=middle;resizable=0;points=[];autosize=1;strokeColor=none;fillColor=none;" vertex="1" parent="1">
          <mxGeometry x="1190" y="1220" width="130" height="30" as="geometry" />
        </mxCell>
        <mxCell id="8iJM9ZkAW7ooaeFF_Nti-39" value="" style="endArrow=open;html=1;rounded=0;endFill=0;dashed=1;exitX=-0.01;exitY=0.876;exitDx=0;exitDy=0;exitPerimeter=0;entryX=1.039;entryY=0.731;entryDx=0;entryDy=0;entryPerimeter=0;" edge="1" parent="1">
          <mxGeometry width="50" height="50" relative="1" as="geometry">
            <mxPoint x="1412" y="1243" as="sourcePoint" />
            <mxPoint x="1075" y="1242" as="targetPoint" />
          </mxGeometry>
        </mxCell>
        <mxCell id="8iJM9ZkAW7ooaeFF_Nti-40" value="Valider la création d&#39;une figure" style="text;html=1;align=center;verticalAlign=middle;resizable=0;points=[];autosize=1;strokeColor=none;fillColor=none;" vertex="1" parent="1">
          <mxGeometry x="1166" y="1380" width="180" height="30" as="geometry" />
        </mxCell>
        <mxCell id="8iJM9ZkAW7ooaeFF_Nti-41" value="figure créée" style="text;html=1;align=center;verticalAlign=middle;resizable=0;points=[];autosize=1;strokeColor=none;fillColor=none;" vertex="1" parent="1">
          <mxGeometry x="1216.5" y="1405" width="90" height="30" as="geometry" />
        </mxCell>
        <mxCell id="8iJM9ZkAW7ooaeFF_Nti-42" value="" style="endArrow=open;html=1;rounded=0;endFill=0;dashed=1;exitX=-0.01;exitY=0.876;exitDx=0;exitDy=0;exitPerimeter=0;entryX=1.039;entryY=0.731;entryDx=0;entryDy=0;entryPerimeter=0;" edge="1" parent="1">
          <mxGeometry width="50" height="50" relative="1" as="geometry">
            <mxPoint x="1418.5" y="1436" as="sourcePoint" />
            <mxPoint x="1081.5" y="1435" as="targetPoint" />
          </mxGeometry>
        </mxCell>
        <mxCell id="8iJM9ZkAW7ooaeFF_Nti-43" value="" style="endArrow=none;html=1;rounded=0;entryX=0.5;entryY=1;entryDx=0;entryDy=0;exitX=0.464;exitY=1.001;exitDx=0;exitDy=0;exitPerimeter=0;" edge="1" parent="1" source="8iJM9ZkAW7ooaeFF_Nti-7" target="8iJM9ZkAW7ooaeFF_Nti-44">
          <mxGeometry width="50" height="50" relative="1" as="geometry">
            <mxPoint x="1435" y="1380" as="sourcePoint" />
            <mxPoint x="1435" y="1169" as="targetPoint" />
          </mxGeometry>
        </mxCell>
        <mxCell id="8iJM9ZkAW7ooaeFF_Nti-44" value="" style="rounded=0;whiteSpace=wrap;html=1;strokeWidth=1;" vertex="1" parent="1">
          <mxGeometry x="1420" y="1380" width="30" height="70" as="geometry" />
        </mxCell>
        <mxCell id="8iJM9ZkAW7ooaeFF_Nti-45" value="" style="endArrow=open;html=1;rounded=0;endFill=0;entryX=0.005;entryY=0.147;entryDx=0;entryDy=0;entryPerimeter=0;" edge="1" parent="1">
          <mxGeometry width="50" height="50" relative="1" as="geometry">
            <mxPoint x="1075" y="1405" as="sourcePoint" />
            <mxPoint x="1416" y="1405" as="targetPoint" />
          </mxGeometry>
        </mxCell>
        <mxCell id="8iJM9ZkAW7ooaeFF_Nti-46" value="" style="endArrow=open;html=1;rounded=0;endFill=0;dashed=1;exitX=-0.01;exitY=0.876;exitDx=0;exitDy=0;exitPerimeter=0;entryX=1.067;entryY=0.386;entryDx=0;entryDy=0;entryPerimeter=0;" edge="1" parent="1">
          <mxGeometry width="50" height="50" relative="1" as="geometry">
            <mxPoint x="1417.6899999999998" y="1080.0000000000002" as="sourcePoint" />
            <mxPoint x="1075" y="1084.0980000000002" as="targetPoint" />
          </mxGeometry>
        </mxCell>
        <mxCell id="8iJM9ZkAW7ooaeFF_Nti-47" value="" style="endArrow=open;html=1;rounded=0;endFill=0;dashed=1;exitX=-0.01;exitY=0.876;exitDx=0;exitDy=0;exitPerimeter=0;entryX=1.067;entryY=0.386;entryDx=0;entryDy=0;entryPerimeter=0;" edge="1" parent="1">
          <mxGeometry width="50" height="50" relative="1" as="geometry">
            <mxPoint x="1417.6899999999998" y="890.0000000000002" as="sourcePoint" />
            <mxPoint x="1075" y="894.0980000000002" as="targetPoint" />
          </mxGeometry>
        </mxCell>
        <mxCell id="8iJM9ZkAW7ooaeFF_Nti-48" value="" style="rounded=0;whiteSpace=wrap;html=1;strokeWidth=1;" vertex="1" parent="1">
          <mxGeometry x="1420" y="1280" width="30" height="60" as="geometry" />
        </mxCell>
        <mxCell id="8iJM9ZkAW7ooaeFF_Nti-49" value="ajout vidéos" style="text;html=1;align=center;verticalAlign=middle;resizable=0;points=[];autosize=1;strokeColor=none;fillColor=none;" vertex="1" parent="1">
          <mxGeometry x="1209" y="1270" width="90" height="30" as="geometry" />
        </mxCell>
        <mxCell id="8iJM9ZkAW7ooaeFF_Nti-50" value="vidéos ajoutée" style="text;html=1;align=center;verticalAlign=middle;resizable=0;points=[];autosize=1;strokeColor=none;fillColor=none;" vertex="1" parent="1">
          <mxGeometry x="1205" y="1300" width="100" height="30" as="geometry" />
        </mxCell>
        <mxCell id="8iJM9ZkAW7ooaeFF_Nti-51" value="" style="endArrow=open;html=1;rounded=0;endFill=0;entryX=0.005;entryY=0.147;entryDx=0;entryDy=0;entryPerimeter=0;" edge="1" parent="1">
          <mxGeometry width="50" height="50" relative="1" as="geometry">
            <mxPoint x="1079" y="1293" as="sourcePoint" />
            <mxPoint x="1420" y="1293" as="targetPoint" />
          </mxGeometry>
        </mxCell>
        <mxCell id="8iJM9ZkAW7ooaeFF_Nti-52" value="" style="endArrow=open;html=1;rounded=0;endFill=0;dashed=1;exitX=-0.01;exitY=0.876;exitDx=0;exitDy=0;exitPerimeter=0;entryX=1.039;entryY=0.731;entryDx=0;entryDy=0;entryPerimeter=0;" edge="1" parent="1">
          <mxGeometry width="50" height="50" relative="1" as="geometry">
            <mxPoint x="1412" y="1323" as="sourcePoint" />
            <mxPoint x="1075" y="1322" as="targetPoint" />
          </mxGeometry>
        </mxCell>
        <mxCell id="ynZk2m2MN11zivsa_D1R-1" value=":Application" style="html=1;whiteSpace=wrap;" vertex="1" parent="1">
          <mxGeometry x="1740" y="654" width="160" height="50" as="geometry" />
        </mxCell>
        <mxCell id="ynZk2m2MN11zivsa_D1R-2" value="Rechercher utilisateur" style="text;html=1;align=center;verticalAlign=middle;resizable=0;points=[];autosize=1;strokeColor=none;fillColor=none;" vertex="1" parent="1">
          <mxGeometry x="1571" y="720" width="140" height="30" as="geometry" />
        </mxCell>
        <mxCell id="ynZk2m2MN11zivsa_D1R-3" value="" style="endArrow=open;html=1;rounded=0;endFill=0;entryX=0.062;entryY=0.06;entryDx=0;entryDy=0;entryPerimeter=0;" edge="1" parent="1">
          <mxGeometry width="50" height="50" relative="1" as="geometry">
            <mxPoint x="1445" y="744" as="sourcePoint" />
            <mxPoint x="1802" y="744" as="targetPoint" />
          </mxGeometry>
        </mxCell>
        <mxCell id="ynZk2m2MN11zivsa_D1R-4" value="" style="rounded=0;whiteSpace=wrap;html=1;strokeWidth=1;" vertex="1" parent="1">
          <mxGeometry x="1800" y="730" width="30" height="60" as="geometry" />
        </mxCell>
        <mxCell id="ynZk2m2MN11zivsa_D1R-5" value="utilisateur trouvé" style="text;html=1;align=center;verticalAlign=middle;resizable=0;points=[];autosize=1;strokeColor=none;fillColor=none;" vertex="1" parent="1">
          <mxGeometry x="1571" y="755" width="110" height="30" as="geometry" />
        </mxCell>
        <mxCell id="ynZk2m2MN11zivsa_D1R-6" value="" style="endArrow=open;html=1;rounded=0;endFill=0;dashed=1;" edge="1" parent="1">
          <mxGeometry width="50" height="50" relative="1" as="geometry">
            <mxPoint x="1780" y="780" as="sourcePoint" />
            <mxPoint x="1450" y="780" as="targetPoint" />
          </mxGeometry>
        </mxCell>
        <mxCell id="ynZk2m2MN11zivsa_D1R-8" value="Enregistrement du titre" style="text;html=1;align=center;verticalAlign=middle;resizable=0;points=[];autosize=1;strokeColor=none;fillColor=none;" vertex="1" parent="1">
          <mxGeometry x="1580" y="926" width="140" height="30" as="geometry" />
        </mxCell>
        <mxCell id="ynZk2m2MN11zivsa_D1R-9" value="" style="endArrow=open;html=1;rounded=0;endFill=0;entryX=-0.072;entryY=0.127;entryDx=0;entryDy=0;entryPerimeter=0;" edge="1" parent="1">
          <mxGeometry width="50" height="50" relative="1" as="geometry">
            <mxPoint x="1450" y="948" as="sourcePoint" />
            <mxPoint x="1808" y="949" as="targetPoint" />
          </mxGeometry>
        </mxCell>
        <mxCell id="ynZk2m2MN11zivsa_D1R-10" value="" style="endArrow=open;html=1;rounded=0;endFill=0;dashed=1;exitX=-0.01;exitY=0.876;exitDx=0;exitDy=0;exitPerimeter=0;entryX=1.067;entryY=0.386;entryDx=0;entryDy=0;entryPerimeter=0;" edge="1" parent="1">
          <mxGeometry width="50" height="50" relative="1" as="geometry">
            <mxPoint x="1792.6899999999998" y="978.5600000000002" as="sourcePoint" />
            <mxPoint x="1450" y="982.6580000000001" as="targetPoint" />
          </mxGeometry>
        </mxCell>
        <mxCell id="ynZk2m2MN11zivsa_D1R-11" value="Titre ajouté" style="text;html=1;align=center;verticalAlign=middle;resizable=0;points=[];autosize=1;strokeColor=none;fillColor=none;" vertex="1" parent="1">
          <mxGeometry x="1587.99" y="956" width="80" height="30" as="geometry" />
        </mxCell>
      </root>
    </mxGraphModel>
  </diagram>
</mxfile>
